#!OML:ASF F:\twosubjects\two\Thursday\Session 1\Rory.ASF
:FULLY-SPECIFIED
:DEGREES
288
root 14.0688 17.9664 5.11106 315.036 -87.7229 -303.537
lowerback 10.6653 -0.00337988 -4.96732
upperback 1.0526 -0.804729 -2.53241
thorax -4.85776 -0.355951 0.270315
lowerneck -15.0479 0.615948 0.231501
upperneck 10.4831 -0.0240347 5.46665
head 5.63453 0.398698 1.68829
rclavicle 4.57205e-015 -1.82882e-014
rhumerus -39.8273 -17.8997 -65.5096
rradius 39.4227
rwrist 17.7645
rhand -25.9081 34.0167
rfingers 7.12502
rthumb 0.634546 4.03787
lclavicle 4.57205e-015 -1.82882e-014
lhumerus -37.3463 11.6519 63.6126
lradius 37.0646
lwrist -20.9621
lhand -12.1735 25.0096
lfingers 7.12502
lthumb 13.8898 54.5257
rfemur -28.8473 -5.29892 14.3577
rtibia 42.7834
rfoot -20.7108 -0.661566
rtoes -7.44889
lfemur -28.0759 13.6708 -19.0653
ltibia 43.4211
lfoot -20.7779 -7.31379
ltoes 6.96393
289
root 14.0875 17.8862 5.10882 316.137 -87.6649 -304.51
lowerback 10.9184 0.0151217 -4.99732
upperback 1.09639 -0.805641 -2.57712
thorax -4.95348 -0.356264 0.24182
lowerneck -14.9482 0.680661 0.490987
upperneck 10.2348 0.0557579 5.23595
head 5.53761 0.425097 1.57742
rclavicle 3.97569e-015 1.03368e-014
rhumerus -39.5779 -17.6197 -65.5136
rradius 39.7059
rwrist 17.5692
rhand -26.7848 32.3418
rfingers 7.12502
rthumb -0.212256 2.36219
lclavicle 3.97569e-015 1.03368e-014
lhumerus -37.2435 10.9603 63.6195
lradius 37.3842
lwrist -20.6617
lhand -12.0915 25.1116
lfingers 7.12502
lthumb 13.9688 54.6223
rfemur -29.8449 -5.98713 14.4959
rtibia 44.2222
rfoot -21.3085 -0.872954
rtoes -11.4186
lfemur -29.1828 13.9586 -19.0365
ltibia 45.1344
lfoot -21.0326 -8.43786
ltoes 8.93198
290
root 14.1033 17.7971 5.0882 318.667 -87.8132 -306.91
lowerback 11.0708 -0.0627163 -5.08055
upperback 1.15363 -0.927088 -2.54636
thorax -4.97169 -0.415035 0.33976
lowerneck -14.7563 0.880808 0.763542
upperneck 9.87235 0.313429 5.06257
head 5.38605 0.539151 1.49671
rclavicle 0 -4.77083e-015
rhumerus -39.2339 -17.3041 -65.7073
rradius 40.0831
rwrist 17.3397
rhand -27.6101 30.8483
rfingers 7.12502
rthumb -1.00936 0.870965
lclavicle 0 -4.77083e-015
lhumerus -37.2168 10.6357 63.2564
lradius 37.5754
lwrist -20.0864
lhand -11.8202 24.8923
lfingers 7.12502
lthumb 14.2303 54.3848
rfemur -30.8994 -6.34757 14.8777
rtibia 45.6981
rfoot -21.6683 -1.34438
rtoes -15.7257
lfemur -30.3848 14.5649 -18.852
ltibia 46.8549
lfoot -21.4484 -8.8025
ltoes 5.77988
291
root 14.1212 17.7356 5.06496 327.774 -88.1369 -316.08
lowerback 11.4503 -0.0225256 -4.84092
upperback 1.27495 -0.86334 -2.4753
thorax -5.06025 -0.388325 0.2727
lowerneck -14.8909 0.908006 0.765351
upperneck 9.86274 0.317619 5.2584
head 5.40556 0.556085 1.55957
rclavicle 3.97569e-016 9.54166e-015
rhumerus -39.1506 -17.1124 -65.7857
rradius 40.7176
rwrist 16.9171
rhand -26.6441 32.0001
rfingers 7.12502
rthumb -0.0763399 2.02034
lclavicle 3.97569e-016 9.54166e-015
lhumerus -36.9023 10.4152 62.9076
lradius 37.6442
lwrist -19.6562
lhand -11.4837 24.5159
lfingers 7.12502
lthumb 14.5545 53.9853
rfemur -31.6943 -6.48417 15.4255
rtibia 47.1724
rfoot -22.15 -0.552785
rtoes -13.007
lfemur -31.3139 15.2022 -18.3185
ltibia 48.4585
lfoot -21.9308 -9.04403
ltoes 2.87155
292
root 14.1437 17.6524 5.05593 335.138 -88.3102 -323.499
lowerback 11.8391 0.078954 -4.69967
upperback 1.4031 -0.726826 -2.3543
thorax -5.14686 -0.323591 0.300958
lowerneck -15.016 0.855974 0.526258
upperneck 9.8739 0.275837 5.39638
head 5.42995 0.538759 1.63938
rclavicle -3.97569e-016 -9.54166e-015
rhumerus -38.9247 -16.9941 -65.581
rradius 41.0724
rwrist 16.6257
rhand -26.1977 33.1929
rfingers 7.12502
rthumb 0.354794 3.21344
lclavicle -3.97569e-016 -9.54166e-015
lhumerus -36.511 10.5562 62.8015
lradius 37.602
lwrist -19.7817
lhand -11.5439 24.3746
lfingers 7.12502
lthumb 14.4965 53.8482
rfemur -32.622 -6.78189 15.7292
rtibia 48.7742
rfoot -22.6325 0.759148
rtoes -7.92935
lfemur -32.2718 15.7273 -18.0291
ltibia 50.0937
lfoot -22.4322 -9.45059
ltoes 2.98708
293
root 14.1598 17.5704 5.05192 336.178 -88.1901 -324.505
lowerback 12.0121 0.0176177 -4.92692
upperback 1.54716 -0.835099 -2.18699
thorax -5.08107 -0.374589 0.622327
lowerneck -15.0826 0.886077 0.125099
upperneck 9.7707 0.399788 5.4503
head 5.40308 0.588004 1.73215
rclavicle -4.37326e-015 3.18055e-015
rhumerus -38.2671 -16.8497 -65.3415
rradius 41.0848
rwrist 16.6692
rhand -27.0145 32.996
rfingers 7.12502
rthumb -0.434116 3.0167
lclavicle -4.37326e-015 3.18055e-015
lhumerus -36.3313 11.0225 62.7689
lradius 37.5989
lwrist -19.8012
lhand -11.7722 24.4806
lfingers 7.12502
lthumb 14.2765 53.9699
rfemur -33.6419 -7.26543 15.692
rtibia 50.4327
rfoot -23.0288 1.7766
rtoes -4.49563
lfemur -33.2994 16.1547 -18.1919
ltibia 51.6821
lfoot -22.8033 -9.96365
ltoes 4.74088
